<svg width="928" height="1408" viewBox="0 0 928 1408" fill="none" xmlns="http://www.w3.org/2000/svg">
<path d="M898 342V444C898 453.333 895 461 889 467C883 473 875.333 476 866 476H698C682.667 572 639.667 650 569 710C498.333 770 406.333 806.667 293 820C404.333 938.667 557.333 1117.33 752 1356C761.333 1366.67 762.667 1378 756 1390C750.667 1402 741 1408 727 1408H532C521.333 1408 513 1404 507 1396C303 1151.33 137 961 9 825C3 819 0 811.667 0 803V676C0 667.333 3.16667 659.833 9.5 653.5C15.8333 647.167 23.3333 644 32 644H144C232 644 302.833 629.667 356.5 601C410.167 572.333 444.333 530.667 459 476H32C22.6667 476 15 473 9 467C3 461 0 453.333 0 444V342C0 332.667 3 325 9 319C15 313 22.6667 310 32 310H445C407 234.667 317.667 197 177 197H32C23.3333 197 15.8333 193.833 9.5 187.5C3.16667 181.167 0 173.667 0 165V32C0 22.6667 3 15 9 9C15 3 22.6667 0 32 0H864C873.333 0 881 3 887 9C893 15 896 22.6667 896 32V134C896 143.333 893 151 887 157C881 163 873.333 166 864 166H631C662.333 206.667 683.667 254.667 695 310H866C875.333 310 883 313 889 319C895 325 898 332.667 898 342Z" fill="#212529"/>
</svg>
